<mxfile host="app.diagrams.net" modified="2024-02-02T13:29:44.270Z" agent="Mozilla/5.0 (X11; Linux x86_64; rv:109.0) Gecko/20100101 Firefox/115.0" etag="JyFMAmxzYp4lRUDamxQs" version="22.1.21" type="device">
  <diagram name="Page-1" id="Ulhep_DSoQVjzYJ-MOLM">
    <mxGraphModel dx="2049" dy="1134" grid="1" gridSize="10" guides="1" tooltips="1" connect="1" arrows="1" fold="1" page="1" pageScale="1" pageWidth="1169" pageHeight="827" math="0" shadow="0">
      <root>
        <mxCell id="0" />
        <mxCell id="1" parent="0" />
        <mxCell id="qdY2nigYkaOSlqFlvciA-65" style="edgeStyle=none;shape=connector;rounded=0;orthogonalLoop=1;jettySize=auto;html=1;exitX=0.25;exitY=1;exitDx=0;exitDy=0;entryX=0.5;entryY=0;entryDx=0;entryDy=0;labelBackgroundColor=default;strokeColor=default;align=center;verticalAlign=middle;fontFamily=Helvetica;fontSize=11;fontColor=default;endArrow=classic;" edge="1" parent="1" source="qdY2nigYkaOSlqFlvciA-51" target="qdY2nigYkaOSlqFlvciA-62">
          <mxGeometry relative="1" as="geometry" />
        </mxCell>
        <mxCell id="qdY2nigYkaOSlqFlvciA-68" style="edgeStyle=none;shape=connector;rounded=0;orthogonalLoop=1;jettySize=auto;html=1;exitX=0.5;exitY=1;exitDx=0;exitDy=0;entryX=0.5;entryY=0;entryDx=0;entryDy=0;labelBackgroundColor=default;strokeColor=default;align=center;verticalAlign=middle;fontFamily=Helvetica;fontSize=11;fontColor=default;endArrow=classic;" edge="1" parent="1" source="qdY2nigYkaOSlqFlvciA-51" target="qdY2nigYkaOSlqFlvciA-64">
          <mxGeometry relative="1" as="geometry" />
        </mxCell>
        <mxCell id="qdY2nigYkaOSlqFlvciA-86" style="edgeStyle=none;shape=connector;rounded=0;orthogonalLoop=1;jettySize=auto;html=1;exitX=1;exitY=0.5;exitDx=0;exitDy=0;entryX=0.5;entryY=0;entryDx=0;entryDy=0;labelBackgroundColor=default;strokeColor=default;align=center;verticalAlign=middle;fontFamily=Helvetica;fontSize=11;fontColor=default;endArrow=classic;" edge="1" parent="1" source="qdY2nigYkaOSlqFlvciA-51" target="qdY2nigYkaOSlqFlvciA-63">
          <mxGeometry relative="1" as="geometry" />
        </mxCell>
        <mxCell id="qdY2nigYkaOSlqFlvciA-190" style="edgeStyle=none;shape=connector;rounded=0;orthogonalLoop=1;jettySize=auto;html=1;exitX=0.75;exitY=1;exitDx=0;exitDy=0;entryX=0.5;entryY=0;entryDx=0;entryDy=0;labelBackgroundColor=default;strokeColor=default;align=center;verticalAlign=middle;fontFamily=Helvetica;fontSize=11;fontColor=default;endArrow=classic;" edge="1" parent="1" source="qdY2nigYkaOSlqFlvciA-51" target="qdY2nigYkaOSlqFlvciA-189">
          <mxGeometry relative="1" as="geometry" />
        </mxCell>
        <mxCell id="qdY2nigYkaOSlqFlvciA-51" value="RenderingWorker" style="rounded=0;whiteSpace=wrap;html=1;fillColor=#6d8764;fontColor=#ffffff;strokeColor=#3A5431;" vertex="1" parent="1">
          <mxGeometry x="290" y="1230" width="120" height="60" as="geometry" />
        </mxCell>
        <mxCell id="qdY2nigYkaOSlqFlvciA-55" value="" style="group" vertex="1" connectable="0" parent="1">
          <mxGeometry x="80" y="50" width="1080" height="1030" as="geometry" />
        </mxCell>
        <mxCell id="qdY2nigYkaOSlqFlvciA-30" value="" style="rounded=0;whiteSpace=wrap;html=1;fontFamily=Helvetica;fontSize=11;fillColor=#ffe6cc;strokeColor=#d79b00;" vertex="1" parent="qdY2nigYkaOSlqFlvciA-55">
          <mxGeometry width="1080" height="1030" as="geometry" />
        </mxCell>
        <mxCell id="qdY2nigYkaOSlqFlvciA-1" value="Context(instance)" style="rounded=0;whiteSpace=wrap;html=1;fillColor=#1ba1e2;strokeColor=#006EAF;fontColor=#ffffff;" vertex="1" parent="qdY2nigYkaOSlqFlvciA-55">
          <mxGeometry x="410" y="40" width="120" height="60" as="geometry" />
        </mxCell>
        <mxCell id="qdY2nigYkaOSlqFlvciA-2" value="PhysicalDevices" style="rounded=0;whiteSpace=wrap;html=1;fillColor=#6a00ff;strokeColor=#3700CC;fontColor=#ffffff;" vertex="1" parent="qdY2nigYkaOSlqFlvciA-55">
          <mxGeometry x="690" y="210" width="120" height="60" as="geometry" />
        </mxCell>
        <mxCell id="qdY2nigYkaOSlqFlvciA-8" style="edgeStyle=none;shape=connector;rounded=0;orthogonalLoop=1;jettySize=auto;html=1;exitX=0.75;exitY=1;exitDx=0;exitDy=0;entryX=0.5;entryY=0;entryDx=0;entryDy=0;labelBackgroundColor=default;strokeColor=default;align=center;verticalAlign=middle;fontFamily=Helvetica;fontSize=11;fontColor=default;endArrow=classic;" edge="1" parent="qdY2nigYkaOSlqFlvciA-55" source="qdY2nigYkaOSlqFlvciA-1" target="qdY2nigYkaOSlqFlvciA-2">
          <mxGeometry relative="1" as="geometry" />
        </mxCell>
        <mxCell id="qdY2nigYkaOSlqFlvciA-6" value="Surfaces" style="rounded=0;whiteSpace=wrap;html=1;fillColor=#60a917;strokeColor=#2D7600;fontColor=#ffffff;" vertex="1" parent="qdY2nigYkaOSlqFlvciA-55">
          <mxGeometry x="130" y="210" width="120" height="60" as="geometry" />
        </mxCell>
        <mxCell id="qdY2nigYkaOSlqFlvciA-9" style="edgeStyle=none;shape=connector;rounded=0;orthogonalLoop=1;jettySize=auto;html=1;exitX=0.25;exitY=1;exitDx=0;exitDy=0;entryX=0.5;entryY=0;entryDx=0;entryDy=0;labelBackgroundColor=default;strokeColor=default;align=center;verticalAlign=middle;fontFamily=Helvetica;fontSize=11;fontColor=default;endArrow=classic;" edge="1" parent="qdY2nigYkaOSlqFlvciA-55" source="qdY2nigYkaOSlqFlvciA-1" target="qdY2nigYkaOSlqFlvciA-6">
          <mxGeometry relative="1" as="geometry" />
        </mxCell>
        <mxCell id="qdY2nigYkaOSlqFlvciA-10" value="PhysicalDevice1" style="rounded=0;whiteSpace=wrap;html=1;" vertex="1" parent="qdY2nigYkaOSlqFlvciA-55">
          <mxGeometry x="610" y="364" width="120" height="60" as="geometry" />
        </mxCell>
        <mxCell id="qdY2nigYkaOSlqFlvciA-12" style="edgeStyle=none;shape=connector;rounded=0;orthogonalLoop=1;jettySize=auto;html=1;exitX=0.25;exitY=1;exitDx=0;exitDy=0;entryX=0.5;entryY=0;entryDx=0;entryDy=0;labelBackgroundColor=default;strokeColor=default;align=center;verticalAlign=middle;fontFamily=Helvetica;fontSize=11;fontColor=default;endArrow=classic;" edge="1" parent="qdY2nigYkaOSlqFlvciA-55" source="qdY2nigYkaOSlqFlvciA-2" target="qdY2nigYkaOSlqFlvciA-10">
          <mxGeometry relative="1" as="geometry" />
        </mxCell>
        <mxCell id="qdY2nigYkaOSlqFlvciA-11" value="PhysicalDevicesN" style="rounded=0;whiteSpace=wrap;html=1;" vertex="1" parent="qdY2nigYkaOSlqFlvciA-55">
          <mxGeometry x="800" y="364" width="120" height="60" as="geometry" />
        </mxCell>
        <mxCell id="qdY2nigYkaOSlqFlvciA-13" style="edgeStyle=none;shape=connector;rounded=0;orthogonalLoop=1;jettySize=auto;html=1;exitX=0.75;exitY=1;exitDx=0;exitDy=0;entryX=0.5;entryY=0;entryDx=0;entryDy=0;labelBackgroundColor=default;strokeColor=default;align=center;verticalAlign=middle;fontFamily=Helvetica;fontSize=11;fontColor=default;endArrow=classic;" edge="1" parent="qdY2nigYkaOSlqFlvciA-55" source="qdY2nigYkaOSlqFlvciA-2" target="qdY2nigYkaOSlqFlvciA-11">
          <mxGeometry relative="1" as="geometry" />
        </mxCell>
        <mxCell id="qdY2nigYkaOSlqFlvciA-14" value="Surface1" style="rounded=0;whiteSpace=wrap;html=1;" vertex="1" parent="qdY2nigYkaOSlqFlvciA-55">
          <mxGeometry x="30" y="334" width="120" height="60" as="geometry" />
        </mxCell>
        <mxCell id="qdY2nigYkaOSlqFlvciA-16" style="edgeStyle=none;shape=connector;rounded=0;orthogonalLoop=1;jettySize=auto;html=1;exitX=0.25;exitY=1;exitDx=0;exitDy=0;entryX=0.5;entryY=0;entryDx=0;entryDy=0;labelBackgroundColor=default;strokeColor=default;align=center;verticalAlign=middle;fontFamily=Helvetica;fontSize=11;fontColor=default;endArrow=classic;" edge="1" parent="qdY2nigYkaOSlqFlvciA-55" source="qdY2nigYkaOSlqFlvciA-6" target="qdY2nigYkaOSlqFlvciA-14">
          <mxGeometry relative="1" as="geometry" />
        </mxCell>
        <mxCell id="qdY2nigYkaOSlqFlvciA-15" value="SurfaceN" style="rounded=0;whiteSpace=wrap;html=1;" vertex="1" parent="qdY2nigYkaOSlqFlvciA-55">
          <mxGeometry x="210" y="340" width="120" height="60" as="geometry" />
        </mxCell>
        <mxCell id="qdY2nigYkaOSlqFlvciA-17" style="edgeStyle=none;shape=connector;rounded=0;orthogonalLoop=1;jettySize=auto;html=1;exitX=0.75;exitY=1;exitDx=0;exitDy=0;entryX=0.5;entryY=0;entryDx=0;entryDy=0;labelBackgroundColor=default;strokeColor=default;align=center;verticalAlign=middle;fontFamily=Helvetica;fontSize=11;fontColor=default;endArrow=classic;" edge="1" parent="qdY2nigYkaOSlqFlvciA-55" source="qdY2nigYkaOSlqFlvciA-6" target="qdY2nigYkaOSlqFlvciA-15">
          <mxGeometry relative="1" as="geometry" />
        </mxCell>
        <mxCell id="qdY2nigYkaOSlqFlvciA-18" value="Device1" style="rounded=0;whiteSpace=wrap;html=1;" vertex="1" parent="qdY2nigYkaOSlqFlvciA-55">
          <mxGeometry x="480" y="510" width="120" height="60" as="geometry" />
        </mxCell>
        <mxCell id="qdY2nigYkaOSlqFlvciA-21" style="edgeStyle=none;shape=connector;rounded=0;orthogonalLoop=1;jettySize=auto;html=1;exitX=0.25;exitY=1;exitDx=0;exitDy=0;entryX=0.5;entryY=0;entryDx=0;entryDy=0;labelBackgroundColor=default;strokeColor=default;align=center;verticalAlign=middle;fontFamily=Helvetica;fontSize=11;fontColor=default;endArrow=classic;" edge="1" parent="qdY2nigYkaOSlqFlvciA-55" source="qdY2nigYkaOSlqFlvciA-10" target="qdY2nigYkaOSlqFlvciA-18">
          <mxGeometry relative="1" as="geometry" />
        </mxCell>
        <mxCell id="qdY2nigYkaOSlqFlvciA-19" value="Device2" style="rounded=0;whiteSpace=wrap;html=1;" vertex="1" parent="qdY2nigYkaOSlqFlvciA-55">
          <mxGeometry x="610" y="590" width="120" height="60" as="geometry" />
        </mxCell>
        <mxCell id="qdY2nigYkaOSlqFlvciA-22" style="edgeStyle=none;shape=connector;rounded=0;orthogonalLoop=1;jettySize=auto;html=1;exitX=0.5;exitY=1;exitDx=0;exitDy=0;entryX=0.5;entryY=0;entryDx=0;entryDy=0;labelBackgroundColor=default;strokeColor=default;align=center;verticalAlign=middle;fontFamily=Helvetica;fontSize=11;fontColor=default;endArrow=classic;" edge="1" parent="qdY2nigYkaOSlqFlvciA-55" source="qdY2nigYkaOSlqFlvciA-10" target="qdY2nigYkaOSlqFlvciA-19">
          <mxGeometry relative="1" as="geometry" />
        </mxCell>
        <mxCell id="qdY2nigYkaOSlqFlvciA-20" value="DeviceN" style="rounded=0;whiteSpace=wrap;html=1;" vertex="1" parent="qdY2nigYkaOSlqFlvciA-55">
          <mxGeometry x="760" y="520" width="120" height="60" as="geometry" />
        </mxCell>
        <mxCell id="qdY2nigYkaOSlqFlvciA-23" style="edgeStyle=none;shape=connector;rounded=0;orthogonalLoop=1;jettySize=auto;html=1;exitX=0.75;exitY=1;exitDx=0;exitDy=0;entryX=0.5;entryY=0;entryDx=0;entryDy=0;labelBackgroundColor=default;strokeColor=default;align=center;verticalAlign=middle;fontFamily=Helvetica;fontSize=11;fontColor=default;endArrow=classic;" edge="1" parent="qdY2nigYkaOSlqFlvciA-55" source="qdY2nigYkaOSlqFlvciA-10" target="qdY2nigYkaOSlqFlvciA-20">
          <mxGeometry relative="1" as="geometry" />
        </mxCell>
        <mxCell id="qdY2nigYkaOSlqFlvciA-24" value="DebugMessangers" style="rounded=0;whiteSpace=wrap;html=1;fillColor=#a20025;strokeColor=#6F0000;fontColor=#ffffff;" vertex="1" parent="qdY2nigYkaOSlqFlvciA-55">
          <mxGeometry x="410" y="160" width="120" height="60" as="geometry" />
        </mxCell>
        <mxCell id="qdY2nigYkaOSlqFlvciA-27" style="edgeStyle=none;shape=connector;rounded=0;orthogonalLoop=1;jettySize=auto;html=1;exitX=0.5;exitY=1;exitDx=0;exitDy=0;entryX=0.5;entryY=0;entryDx=0;entryDy=0;labelBackgroundColor=default;strokeColor=default;align=center;verticalAlign=middle;fontFamily=Helvetica;fontSize=11;fontColor=default;endArrow=classic;" edge="1" parent="qdY2nigYkaOSlqFlvciA-55" source="qdY2nigYkaOSlqFlvciA-1" target="qdY2nigYkaOSlqFlvciA-24">
          <mxGeometry relative="1" as="geometry" />
        </mxCell>
        <mxCell id="qdY2nigYkaOSlqFlvciA-25" value="DebugMessanger1" style="rounded=0;whiteSpace=wrap;html=1;fillColor=default;fillStyle=solid;" vertex="1" parent="qdY2nigYkaOSlqFlvciA-55">
          <mxGeometry x="330" y="250" width="120" height="60" as="geometry" />
        </mxCell>
        <mxCell id="qdY2nigYkaOSlqFlvciA-28" style="edgeStyle=none;shape=connector;rounded=0;orthogonalLoop=1;jettySize=auto;html=1;exitX=0.25;exitY=1;exitDx=0;exitDy=0;entryX=0.5;entryY=0;entryDx=0;entryDy=0;labelBackgroundColor=default;strokeColor=default;align=center;verticalAlign=middle;fontFamily=Helvetica;fontSize=11;fontColor=default;endArrow=classic;" edge="1" parent="qdY2nigYkaOSlqFlvciA-55" source="qdY2nigYkaOSlqFlvciA-24" target="qdY2nigYkaOSlqFlvciA-25">
          <mxGeometry relative="1" as="geometry" />
        </mxCell>
        <mxCell id="qdY2nigYkaOSlqFlvciA-26" value="DebugMessangerN" style="rounded=0;whiteSpace=wrap;html=1;" vertex="1" parent="qdY2nigYkaOSlqFlvciA-55">
          <mxGeometry x="490" y="250" width="120" height="60" as="geometry" />
        </mxCell>
        <mxCell id="qdY2nigYkaOSlqFlvciA-29" style="edgeStyle=none;shape=connector;rounded=0;orthogonalLoop=1;jettySize=auto;html=1;exitX=0.75;exitY=1;exitDx=0;exitDy=0;entryX=0.5;entryY=0;entryDx=0;entryDy=0;labelBackgroundColor=default;strokeColor=default;align=center;verticalAlign=middle;fontFamily=Helvetica;fontSize=11;fontColor=default;endArrow=classic;" edge="1" parent="qdY2nigYkaOSlqFlvciA-55" source="qdY2nigYkaOSlqFlvciA-24" target="qdY2nigYkaOSlqFlvciA-26">
          <mxGeometry relative="1" as="geometry" />
        </mxCell>
        <mxCell id="qdY2nigYkaOSlqFlvciA-32" value="&lt;b&gt;&lt;font style=&quot;font-size: 26px;&quot;&gt;Context level&lt;/font&gt;&lt;/b&gt;" style="text;html=1;strokeColor=none;fillColor=none;align=center;verticalAlign=middle;whiteSpace=wrap;rounded=0;fontSize=11;fontFamily=Helvetica;fontColor=default;" vertex="1" parent="qdY2nigYkaOSlqFlvciA-55">
          <mxGeometry x="880" y="20" width="185" height="70" as="geometry" />
        </mxCell>
        <mxCell id="qdY2nigYkaOSlqFlvciA-35" value="Workers" style="rounded=0;whiteSpace=wrap;html=1;fillColor=#76608a;fontColor=#ffffff;strokeColor=#432D57;" vertex="1" parent="qdY2nigYkaOSlqFlvciA-55">
          <mxGeometry x="360" y="790" width="120" height="60" as="geometry" />
        </mxCell>
        <mxCell id="qdY2nigYkaOSlqFlvciA-37" style="edgeStyle=none;shape=connector;rounded=0;orthogonalLoop=1;jettySize=auto;html=1;exitX=0.25;exitY=1;exitDx=0;exitDy=0;entryX=0.5;entryY=0;entryDx=0;entryDy=0;labelBackgroundColor=default;strokeColor=default;align=center;verticalAlign=middle;fontFamily=Helvetica;fontSize=11;fontColor=default;endArrow=classic;" edge="1" parent="qdY2nigYkaOSlqFlvciA-55" source="qdY2nigYkaOSlqFlvciA-19" target="qdY2nigYkaOSlqFlvciA-35">
          <mxGeometry relative="1" as="geometry" />
        </mxCell>
        <mxCell id="qdY2nigYkaOSlqFlvciA-36" value="ShaderModules" style="rounded=0;whiteSpace=wrap;html=1;fillColor=#647687;fontColor=#ffffff;strokeColor=#314354;" vertex="1" parent="qdY2nigYkaOSlqFlvciA-55">
          <mxGeometry x="850" y="800" width="120" height="60" as="geometry" />
        </mxCell>
        <mxCell id="qdY2nigYkaOSlqFlvciA-38" style="edgeStyle=none;shape=connector;rounded=0;orthogonalLoop=1;jettySize=auto;html=1;exitX=0.75;exitY=1;exitDx=0;exitDy=0;entryX=0.5;entryY=0;entryDx=0;entryDy=0;labelBackgroundColor=default;strokeColor=default;align=center;verticalAlign=middle;fontFamily=Helvetica;fontSize=11;fontColor=default;endArrow=classic;" edge="1" parent="qdY2nigYkaOSlqFlvciA-55" source="qdY2nigYkaOSlqFlvciA-19" target="qdY2nigYkaOSlqFlvciA-36">
          <mxGeometry relative="1" as="geometry" />
        </mxCell>
        <mxCell id="qdY2nigYkaOSlqFlvciA-39" value="Worker1" style="rounded=0;whiteSpace=wrap;html=1;" vertex="1" parent="qdY2nigYkaOSlqFlvciA-55">
          <mxGeometry x="240" y="930" width="120" height="60" as="geometry" />
        </mxCell>
        <mxCell id="qdY2nigYkaOSlqFlvciA-46" style="edgeStyle=none;shape=connector;rounded=0;orthogonalLoop=1;jettySize=auto;html=1;exitX=0.25;exitY=1;exitDx=0;exitDy=0;entryX=0.5;entryY=0;entryDx=0;entryDy=0;labelBackgroundColor=default;strokeColor=default;align=center;verticalAlign=middle;fontFamily=Helvetica;fontSize=11;fontColor=default;endArrow=classic;" edge="1" parent="qdY2nigYkaOSlqFlvciA-55" source="qdY2nigYkaOSlqFlvciA-35" target="qdY2nigYkaOSlqFlvciA-39">
          <mxGeometry relative="1" as="geometry" />
        </mxCell>
        <mxCell id="qdY2nigYkaOSlqFlvciA-40" value="WorkerN" style="rounded=0;whiteSpace=wrap;html=1;" vertex="1" parent="qdY2nigYkaOSlqFlvciA-55">
          <mxGeometry x="480" y="930" width="120" height="60" as="geometry" />
        </mxCell>
        <mxCell id="qdY2nigYkaOSlqFlvciA-45" style="edgeStyle=none;shape=connector;rounded=0;orthogonalLoop=1;jettySize=auto;html=1;exitX=0.75;exitY=1;exitDx=0;exitDy=0;entryX=0.5;entryY=0;entryDx=0;entryDy=0;labelBackgroundColor=default;strokeColor=default;align=center;verticalAlign=middle;fontFamily=Helvetica;fontSize=11;fontColor=default;endArrow=classic;" edge="1" parent="qdY2nigYkaOSlqFlvciA-55" source="qdY2nigYkaOSlqFlvciA-35" target="qdY2nigYkaOSlqFlvciA-40">
          <mxGeometry relative="1" as="geometry" />
        </mxCell>
        <mxCell id="qdY2nigYkaOSlqFlvciA-41" value="ShaderModule1" style="rounded=0;whiteSpace=wrap;html=1;" vertex="1" parent="qdY2nigYkaOSlqFlvciA-55">
          <mxGeometry x="720" y="920" width="120" height="60" as="geometry" />
        </mxCell>
        <mxCell id="qdY2nigYkaOSlqFlvciA-43" style="edgeStyle=none;shape=connector;rounded=0;orthogonalLoop=1;jettySize=auto;html=1;exitX=0.25;exitY=1;exitDx=0;exitDy=0;entryX=0.5;entryY=0;entryDx=0;entryDy=0;labelBackgroundColor=default;strokeColor=default;align=center;verticalAlign=middle;fontFamily=Helvetica;fontSize=11;fontColor=default;endArrow=classic;" edge="1" parent="qdY2nigYkaOSlqFlvciA-55" source="qdY2nigYkaOSlqFlvciA-36" target="qdY2nigYkaOSlqFlvciA-41">
          <mxGeometry relative="1" as="geometry" />
        </mxCell>
        <mxCell id="qdY2nigYkaOSlqFlvciA-42" value="ShaderModuleN" style="rounded=0;whiteSpace=wrap;html=1;" vertex="1" parent="qdY2nigYkaOSlqFlvciA-55">
          <mxGeometry x="940" y="920" width="120" height="60" as="geometry" />
        </mxCell>
        <mxCell id="qdY2nigYkaOSlqFlvciA-44" style="edgeStyle=none;shape=connector;rounded=0;orthogonalLoop=1;jettySize=auto;html=1;exitX=0.75;exitY=1;exitDx=0;exitDy=0;entryX=0.5;entryY=0;entryDx=0;entryDy=0;labelBackgroundColor=default;strokeColor=default;align=center;verticalAlign=middle;fontFamily=Helvetica;fontSize=11;fontColor=default;endArrow=classic;" edge="1" parent="qdY2nigYkaOSlqFlvciA-55" source="qdY2nigYkaOSlqFlvciA-36" target="qdY2nigYkaOSlqFlvciA-42">
          <mxGeometry relative="1" as="geometry" />
        </mxCell>
        <mxCell id="qdY2nigYkaOSlqFlvciA-47" value="Worker interface" style="rounded=0;whiteSpace=wrap;html=1;" vertex="1" parent="qdY2nigYkaOSlqFlvciA-55">
          <mxGeometry x="100" y="690" width="120" height="60" as="geometry" />
        </mxCell>
        <mxCell id="qdY2nigYkaOSlqFlvciA-50" style="edgeStyle=orthogonalEdgeStyle;shape=connector;curved=1;rounded=0;orthogonalLoop=1;jettySize=auto;html=1;exitX=0.25;exitY=0;exitDx=0;exitDy=0;entryX=0.5;entryY=1;entryDx=0;entryDy=0;dashed=1;labelBackgroundColor=default;strokeColor=default;align=center;verticalAlign=middle;fontFamily=Helvetica;fontSize=11;fontColor=default;endArrow=classic;" edge="1" parent="qdY2nigYkaOSlqFlvciA-55" source="qdY2nigYkaOSlqFlvciA-39" target="qdY2nigYkaOSlqFlvciA-47">
          <mxGeometry relative="1" as="geometry" />
        </mxCell>
        <mxCell id="qdY2nigYkaOSlqFlvciA-49" style="edgeStyle=orthogonalEdgeStyle;shape=connector;rounded=0;orthogonalLoop=1;jettySize=auto;html=1;exitX=0.75;exitY=0;exitDx=0;exitDy=0;entryX=1;entryY=0.5;entryDx=0;entryDy=0;labelBackgroundColor=default;strokeColor=default;align=center;verticalAlign=middle;fontFamily=Helvetica;fontSize=11;fontColor=default;endArrow=classic;curved=1;dashed=1;" edge="1" parent="qdY2nigYkaOSlqFlvciA-55" source="qdY2nigYkaOSlqFlvciA-40" target="qdY2nigYkaOSlqFlvciA-47">
          <mxGeometry relative="1" as="geometry" />
        </mxCell>
        <mxCell id="qdY2nigYkaOSlqFlvciA-56" style="edgeStyle=orthogonalEdgeStyle;shape=connector;curved=1;rounded=0;orthogonalLoop=1;jettySize=auto;html=1;exitX=0.25;exitY=0;exitDx=0;exitDy=0;entryX=0;entryY=0.5;entryDx=0;entryDy=0;dashed=1;labelBackgroundColor=default;strokeColor=default;align=center;verticalAlign=middle;fontFamily=Helvetica;fontSize=11;fontColor=default;endArrow=classic;" edge="1" parent="1" source="qdY2nigYkaOSlqFlvciA-51" target="qdY2nigYkaOSlqFlvciA-47">
          <mxGeometry relative="1" as="geometry" />
        </mxCell>
        <mxCell id="qdY2nigYkaOSlqFlvciA-57" style="shape=connector;rounded=0;orthogonalLoop=1;jettySize=auto;html=1;exitX=0.75;exitY=0;exitDx=0;exitDy=0;entryX=0.5;entryY=1;entryDx=0;entryDy=0;dashed=1;labelBackgroundColor=default;strokeColor=default;align=center;verticalAlign=middle;fontFamily=Helvetica;fontSize=11;fontColor=default;endArrow=classic;dashPattern=8 8;" edge="1" parent="1" source="qdY2nigYkaOSlqFlvciA-51" target="qdY2nigYkaOSlqFlvciA-39">
          <mxGeometry relative="1" as="geometry" />
        </mxCell>
        <mxCell id="qdY2nigYkaOSlqFlvciA-59" value="&lt;div&gt;&lt;b&gt;&lt;font style=&quot;font-size: 26px;&quot;&gt;Rendering&lt;/font&gt;&lt;/b&gt;&lt;/div&gt;&lt;div&gt;&lt;b&gt;&lt;font style=&quot;font-size: 26px;&quot;&gt;worker level&lt;/font&gt;&lt;/b&gt;&lt;/div&gt;" style="text;html=1;strokeColor=none;fillColor=none;align=center;verticalAlign=middle;whiteSpace=wrap;rounded=0;fontSize=11;fontFamily=Helvetica;fontColor=default;" vertex="1" parent="1">
          <mxGeometry x="960" y="1120" width="185" height="70" as="geometry" />
        </mxCell>
        <mxCell id="qdY2nigYkaOSlqFlvciA-61" value="Swapchain" style="rounded=0;whiteSpace=wrap;html=1;" vertex="1" parent="1">
          <mxGeometry x="40" y="1510" width="120" height="60" as="geometry" />
        </mxCell>
        <mxCell id="qdY2nigYkaOSlqFlvciA-66" style="edgeStyle=none;shape=connector;rounded=0;orthogonalLoop=1;jettySize=auto;html=1;exitX=0.5;exitY=1;exitDx=0;exitDy=0;entryX=0.5;entryY=0;entryDx=0;entryDy=0;labelBackgroundColor=default;strokeColor=default;align=center;verticalAlign=middle;fontFamily=Helvetica;fontSize=11;fontColor=default;endArrow=classic;" edge="1" parent="1" source="qdY2nigYkaOSlqFlvciA-62" target="qdY2nigYkaOSlqFlvciA-61">
          <mxGeometry relative="1" as="geometry" />
        </mxCell>
        <mxCell id="qdY2nigYkaOSlqFlvciA-62" value="FlaggedSwapchain" style="rounded=0;whiteSpace=wrap;html=1;" vertex="1" parent="1">
          <mxGeometry x="40" y="1380" width="120" height="60" as="geometry" />
        </mxCell>
        <mxCell id="qdY2nigYkaOSlqFlvciA-89" style="edgeStyle=none;shape=connector;rounded=0;orthogonalLoop=1;jettySize=auto;html=1;entryX=0.5;entryY=0;entryDx=0;entryDy=0;labelBackgroundColor=default;strokeColor=default;align=center;verticalAlign=middle;fontFamily=Helvetica;fontSize=11;fontColor=default;endArrow=classic;exitX=0.5;exitY=1;exitDx=0;exitDy=0;" edge="1" parent="1" source="qdY2nigYkaOSlqFlvciA-63" target="qdY2nigYkaOSlqFlvciA-87">
          <mxGeometry relative="1" as="geometry">
            <mxPoint x="1310" y="1500" as="sourcePoint" />
          </mxGeometry>
        </mxCell>
        <mxCell id="qdY2nigYkaOSlqFlvciA-171" style="edgeStyle=none;shape=connector;rounded=0;orthogonalLoop=1;jettySize=auto;html=1;exitX=1;exitY=0.5;exitDx=0;exitDy=0;entryX=0.5;entryY=0;entryDx=0;entryDy=0;labelBackgroundColor=default;strokeColor=default;align=center;verticalAlign=middle;fontFamily=Helvetica;fontSize=11;fontColor=default;endArrow=classic;" edge="1" parent="1" source="qdY2nigYkaOSlqFlvciA-63" target="qdY2nigYkaOSlqFlvciA-170">
          <mxGeometry relative="1" as="geometry" />
        </mxCell>
        <mxCell id="qdY2nigYkaOSlqFlvciA-63" value="RenderPasses" style="rounded=0;whiteSpace=wrap;html=1;" vertex="1" parent="1">
          <mxGeometry x="1180" y="1390" width="120" height="60" as="geometry" />
        </mxCell>
        <mxCell id="qdY2nigYkaOSlqFlvciA-74" style="edgeStyle=none;shape=connector;rounded=0;orthogonalLoop=1;jettySize=auto;html=1;exitX=0.25;exitY=1;exitDx=0;exitDy=0;entryX=0.5;entryY=0;entryDx=0;entryDy=0;labelBackgroundColor=default;strokeColor=default;align=center;verticalAlign=middle;fontFamily=Helvetica;fontSize=11;fontColor=default;endArrow=classic;" edge="1" parent="1" source="qdY2nigYkaOSlqFlvciA-64" target="qdY2nigYkaOSlqFlvciA-69">
          <mxGeometry relative="1" as="geometry" />
        </mxCell>
        <mxCell id="qdY2nigYkaOSlqFlvciA-84" style="edgeStyle=none;shape=connector;rounded=0;orthogonalLoop=1;jettySize=auto;html=1;exitX=0.5;exitY=1;exitDx=0;exitDy=0;entryX=0.5;entryY=0;entryDx=0;entryDy=0;labelBackgroundColor=default;strokeColor=default;align=center;verticalAlign=middle;fontFamily=Helvetica;fontSize=11;fontColor=default;endArrow=classic;" edge="1" parent="1" source="qdY2nigYkaOSlqFlvciA-64" target="qdY2nigYkaOSlqFlvciA-75">
          <mxGeometry relative="1" as="geometry" />
        </mxCell>
        <mxCell id="qdY2nigYkaOSlqFlvciA-85" style="edgeStyle=none;shape=connector;rounded=0;orthogonalLoop=1;jettySize=auto;html=1;exitX=0.75;exitY=1;exitDx=0;exitDy=0;entryX=0.5;entryY=0;entryDx=0;entryDy=0;labelBackgroundColor=default;strokeColor=default;align=center;verticalAlign=middle;fontFamily=Helvetica;fontSize=11;fontColor=default;endArrow=classic;" edge="1" parent="1" source="qdY2nigYkaOSlqFlvciA-64" target="qdY2nigYkaOSlqFlvciA-73">
          <mxGeometry relative="1" as="geometry" />
        </mxCell>
        <mxCell id="qdY2nigYkaOSlqFlvciA-64" value="PerPassResources" style="rounded=0;whiteSpace=wrap;html=1;" vertex="1" parent="1">
          <mxGeometry x="290" y="1380" width="120" height="60" as="geometry" />
        </mxCell>
        <mxCell id="qdY2nigYkaOSlqFlvciA-69" value="Fences" style="rounded=0;whiteSpace=wrap;html=1;" vertex="1" parent="1">
          <mxGeometry x="110" y="1640" width="120" height="60" as="geometry" />
        </mxCell>
        <mxCell id="qdY2nigYkaOSlqFlvciA-70" value="CommandBuffers" style="rounded=0;whiteSpace=wrap;html=1;" vertex="1" parent="1">
          <mxGeometry x="170" y="1770" width="120" height="60" as="geometry" />
        </mxCell>
        <mxCell id="qdY2nigYkaOSlqFlvciA-71" value="CommandPool" style="rounded=0;whiteSpace=wrap;html=1;" vertex="1" parent="1">
          <mxGeometry x="350" y="1770" width="120" height="60" as="geometry" />
        </mxCell>
        <mxCell id="qdY2nigYkaOSlqFlvciA-81" style="edgeStyle=none;shape=connector;rounded=0;orthogonalLoop=1;jettySize=auto;html=1;exitX=0.25;exitY=1;exitDx=0;exitDy=0;entryX=0.5;entryY=0;entryDx=0;entryDy=0;labelBackgroundColor=default;strokeColor=default;align=center;verticalAlign=middle;fontFamily=Helvetica;fontSize=11;fontColor=default;endArrow=classic;" edge="1" parent="1" source="qdY2nigYkaOSlqFlvciA-73" target="qdY2nigYkaOSlqFlvciA-76">
          <mxGeometry relative="1" as="geometry" />
        </mxCell>
        <mxCell id="qdY2nigYkaOSlqFlvciA-82" style="edgeStyle=none;shape=connector;rounded=0;orthogonalLoop=1;jettySize=auto;html=1;exitX=0.5;exitY=1;exitDx=0;exitDy=0;entryX=0.5;entryY=0;entryDx=0;entryDy=0;labelBackgroundColor=default;strokeColor=default;align=center;verticalAlign=middle;fontFamily=Helvetica;fontSize=11;fontColor=default;endArrow=classic;" edge="1" parent="1" source="qdY2nigYkaOSlqFlvciA-73" target="qdY2nigYkaOSlqFlvciA-77">
          <mxGeometry relative="1" as="geometry" />
        </mxCell>
        <mxCell id="qdY2nigYkaOSlqFlvciA-83" style="edgeStyle=none;shape=connector;rounded=0;orthogonalLoop=1;jettySize=auto;html=1;exitX=0.75;exitY=1;exitDx=0;exitDy=0;entryX=0.5;entryY=0;entryDx=0;entryDy=0;labelBackgroundColor=default;strokeColor=default;align=center;verticalAlign=middle;fontFamily=Helvetica;fontSize=11;fontColor=default;endArrow=classic;" edge="1" parent="1" source="qdY2nigYkaOSlqFlvciA-73" target="qdY2nigYkaOSlqFlvciA-78">
          <mxGeometry relative="1" as="geometry" />
        </mxCell>
        <mxCell id="qdY2nigYkaOSlqFlvciA-73" value="&lt;div&gt;Descriptor&lt;/div&gt;&lt;div&gt;resources&lt;br&gt;&lt;/div&gt;" style="rounded=0;whiteSpace=wrap;html=1;" vertex="1" parent="1">
          <mxGeometry x="600" y="1550" width="120" height="60" as="geometry" />
        </mxCell>
        <mxCell id="qdY2nigYkaOSlqFlvciA-79" style="edgeStyle=none;shape=connector;rounded=0;orthogonalLoop=1;jettySize=auto;html=1;exitX=0.25;exitY=1;exitDx=0;exitDy=0;entryX=0.5;entryY=0;entryDx=0;entryDy=0;labelBackgroundColor=default;strokeColor=default;align=center;verticalAlign=middle;fontFamily=Helvetica;fontSize=11;fontColor=default;endArrow=classic;" edge="1" parent="1" source="qdY2nigYkaOSlqFlvciA-75" target="qdY2nigYkaOSlqFlvciA-70">
          <mxGeometry relative="1" as="geometry" />
        </mxCell>
        <mxCell id="qdY2nigYkaOSlqFlvciA-80" style="edgeStyle=none;shape=connector;rounded=0;orthogonalLoop=1;jettySize=auto;html=1;exitX=0.75;exitY=1;exitDx=0;exitDy=0;entryX=0.5;entryY=0;entryDx=0;entryDy=0;labelBackgroundColor=default;strokeColor=default;align=center;verticalAlign=middle;fontFamily=Helvetica;fontSize=11;fontColor=default;endArrow=classic;" edge="1" parent="1" source="qdY2nigYkaOSlqFlvciA-75" target="qdY2nigYkaOSlqFlvciA-71">
          <mxGeometry relative="1" as="geometry" />
        </mxCell>
        <mxCell id="qdY2nigYkaOSlqFlvciA-75" value="&lt;div&gt;Command&lt;/div&gt;&lt;div&gt;resourcses&lt;/div&gt;" style="rounded=0;whiteSpace=wrap;html=1;" vertex="1" parent="1">
          <mxGeometry x="290" y="1550" width="120" height="60" as="geometry" />
        </mxCell>
        <mxCell id="qdY2nigYkaOSlqFlvciA-76" value="&lt;div&gt;Descriptor&lt;/div&gt;&lt;div&gt;sets&lt;br&gt;&lt;/div&gt;" style="rounded=0;whiteSpace=wrap;html=1;" vertex="1" parent="1">
          <mxGeometry x="500" y="1710" width="120" height="60" as="geometry" />
        </mxCell>
        <mxCell id="qdY2nigYkaOSlqFlvciA-77" value="&lt;div&gt;Descriptor&lt;/div&gt;&lt;div&gt;layout&lt;br&gt;&lt;/div&gt;" style="rounded=0;whiteSpace=wrap;html=1;" vertex="1" parent="1">
          <mxGeometry x="600" y="1810" width="120" height="60" as="geometry" />
        </mxCell>
        <mxCell id="qdY2nigYkaOSlqFlvciA-78" value="&lt;div&gt;Descriptor&lt;/div&gt;&lt;div&gt;pool&lt;br&gt;&lt;/div&gt;" style="rounded=0;whiteSpace=wrap;html=1;" vertex="1" parent="1">
          <mxGeometry x="730" y="1710" width="120" height="60" as="geometry" />
        </mxCell>
        <mxCell id="qdY2nigYkaOSlqFlvciA-104" style="edgeStyle=none;shape=connector;rounded=0;orthogonalLoop=1;jettySize=auto;html=1;exitX=0.25;exitY=1;exitDx=0;exitDy=0;entryX=0.5;entryY=0;entryDx=0;entryDy=0;labelBackgroundColor=default;strokeColor=default;align=center;verticalAlign=middle;fontFamily=Helvetica;fontSize=11;fontColor=default;endArrow=classic;" edge="1" parent="1" source="qdY2nigYkaOSlqFlvciA-87" target="qdY2nigYkaOSlqFlvciA-103">
          <mxGeometry relative="1" as="geometry" />
        </mxCell>
        <mxCell id="qdY2nigYkaOSlqFlvciA-153" style="edgeStyle=none;shape=connector;rounded=0;orthogonalLoop=1;jettySize=auto;html=1;exitX=0.75;exitY=1;exitDx=0;exitDy=0;entryX=0.5;entryY=0;entryDx=0;entryDy=0;labelBackgroundColor=default;strokeColor=default;align=center;verticalAlign=middle;fontFamily=Helvetica;fontSize=11;fontColor=default;endArrow=classic;" edge="1" parent="1" source="qdY2nigYkaOSlqFlvciA-87" target="qdY2nigYkaOSlqFlvciA-91">
          <mxGeometry relative="1" as="geometry" />
        </mxCell>
        <mxCell id="qdY2nigYkaOSlqFlvciA-181" style="edgeStyle=none;shape=connector;rounded=0;orthogonalLoop=1;jettySize=auto;html=1;exitX=0.5;exitY=1;exitDx=0;exitDy=0;entryX=0.5;entryY=0;entryDx=0;entryDy=0;labelBackgroundColor=default;strokeColor=default;align=center;verticalAlign=middle;fontFamily=Helvetica;fontSize=11;fontColor=default;endArrow=classic;" edge="1" parent="1" source="qdY2nigYkaOSlqFlvciA-87" target="qdY2nigYkaOSlqFlvciA-92">
          <mxGeometry relative="1" as="geometry" />
        </mxCell>
        <mxCell id="qdY2nigYkaOSlqFlvciA-87" value="DefferedPass" style="rounded=0;whiteSpace=wrap;html=1;" vertex="1" parent="1">
          <mxGeometry x="1180" y="1590" width="120" height="60" as="geometry" />
        </mxCell>
        <mxCell id="qdY2nigYkaOSlqFlvciA-98" style="edgeStyle=none;shape=connector;rounded=0;orthogonalLoop=1;jettySize=auto;html=1;exitX=0.25;exitY=1;exitDx=0;exitDy=0;entryX=0.5;entryY=0;entryDx=0;entryDy=0;labelBackgroundColor=default;strokeColor=default;align=center;verticalAlign=middle;fontFamily=Helvetica;fontSize=11;fontColor=default;endArrow=classic;" edge="1" parent="1" source="qdY2nigYkaOSlqFlvciA-91" target="qdY2nigYkaOSlqFlvciA-93">
          <mxGeometry relative="1" as="geometry" />
        </mxCell>
        <mxCell id="qdY2nigYkaOSlqFlvciA-99" style="edgeStyle=none;shape=connector;rounded=0;orthogonalLoop=1;jettySize=auto;html=1;exitX=0.75;exitY=1;exitDx=0;exitDy=0;entryX=0.5;entryY=0;entryDx=0;entryDy=0;labelBackgroundColor=default;strokeColor=default;align=center;verticalAlign=middle;fontFamily=Helvetica;fontSize=11;fontColor=default;endArrow=classic;" edge="1" parent="1" source="qdY2nigYkaOSlqFlvciA-91" target="qdY2nigYkaOSlqFlvciA-94">
          <mxGeometry relative="1" as="geometry" />
        </mxCell>
        <mxCell id="qdY2nigYkaOSlqFlvciA-91" value="Subpasses" style="rounded=0;whiteSpace=wrap;html=1;" vertex="1" parent="1">
          <mxGeometry x="1450" y="1710" width="120" height="60" as="geometry" />
        </mxCell>
        <mxCell id="qdY2nigYkaOSlqFlvciA-100" style="edgeStyle=none;shape=connector;rounded=0;orthogonalLoop=1;jettySize=auto;html=1;exitX=0.25;exitY=1;exitDx=0;exitDy=0;entryX=0.5;entryY=0;entryDx=0;entryDy=0;labelBackgroundColor=default;strokeColor=default;align=center;verticalAlign=middle;fontFamily=Helvetica;fontSize=11;fontColor=default;endArrow=classic;" edge="1" parent="1" source="qdY2nigYkaOSlqFlvciA-92" target="qdY2nigYkaOSlqFlvciA-95">
          <mxGeometry relative="1" as="geometry" />
        </mxCell>
        <mxCell id="qdY2nigYkaOSlqFlvciA-101" style="edgeStyle=none;shape=connector;rounded=0;orthogonalLoop=1;jettySize=auto;html=1;exitX=0.5;exitY=1;exitDx=0;exitDy=0;entryX=0.5;entryY=0;entryDx=0;entryDy=0;labelBackgroundColor=default;strokeColor=default;align=center;verticalAlign=middle;fontFamily=Helvetica;fontSize=11;fontColor=default;endArrow=classic;" edge="1" parent="1" source="qdY2nigYkaOSlqFlvciA-92" target="qdY2nigYkaOSlqFlvciA-96">
          <mxGeometry relative="1" as="geometry" />
        </mxCell>
        <mxCell id="qdY2nigYkaOSlqFlvciA-102" style="edgeStyle=none;shape=connector;rounded=0;orthogonalLoop=1;jettySize=auto;html=1;exitX=0.75;exitY=1;exitDx=0;exitDy=0;entryX=0.5;entryY=0;entryDx=0;entryDy=0;labelBackgroundColor=default;strokeColor=default;align=center;verticalAlign=middle;fontFamily=Helvetica;fontSize=11;fontColor=default;endArrow=classic;" edge="1" parent="1" source="qdY2nigYkaOSlqFlvciA-92" target="qdY2nigYkaOSlqFlvciA-97">
          <mxGeometry relative="1" as="geometry" />
        </mxCell>
        <mxCell id="qdY2nigYkaOSlqFlvciA-92" value="GBuffer" style="rounded=0;whiteSpace=wrap;html=1;" vertex="1" parent="1">
          <mxGeometry x="1220" y="1730" width="120" height="60" as="geometry" />
        </mxCell>
        <mxCell id="qdY2nigYkaOSlqFlvciA-93" value="Geometry pass" style="rounded=0;whiteSpace=wrap;html=1;" vertex="1" parent="1">
          <mxGeometry x="1410" y="1880" width="120" height="60" as="geometry" />
        </mxCell>
        <mxCell id="qdY2nigYkaOSlqFlvciA-94" value="Light pass" style="rounded=0;whiteSpace=wrap;html=1;" vertex="1" parent="1">
          <mxGeometry x="1540" y="1890" width="120" height="60" as="geometry" />
        </mxCell>
        <mxCell id="qdY2nigYkaOSlqFlvciA-95" value="Color buffer" style="rounded=0;whiteSpace=wrap;html=1;" vertex="1" parent="1">
          <mxGeometry x="1120" y="1990" width="120" height="60" as="geometry" />
        </mxCell>
        <mxCell id="qdY2nigYkaOSlqFlvciA-96" value="Depth buffer" style="rounded=0;whiteSpace=wrap;html=1;" vertex="1" parent="1">
          <mxGeometry x="1220" y="2120" width="120" height="60" as="geometry" />
        </mxCell>
        <mxCell id="qdY2nigYkaOSlqFlvciA-97" value="Normals buffer" style="rounded=0;whiteSpace=wrap;html=1;" vertex="1" parent="1">
          <mxGeometry x="1350" y="2007" width="120" height="60" as="geometry" />
        </mxCell>
        <mxCell id="qdY2nigYkaOSlqFlvciA-156" style="edgeStyle=none;shape=connector;rounded=0;orthogonalLoop=1;jettySize=auto;html=1;exitX=0.25;exitY=1;exitDx=0;exitDy=0;entryX=0.5;entryY=0;entryDx=0;entryDy=0;labelBackgroundColor=default;strokeColor=default;align=center;verticalAlign=middle;fontFamily=Helvetica;fontSize=11;fontColor=default;endArrow=classic;" edge="1" parent="1" source="qdY2nigYkaOSlqFlvciA-103" target="qdY2nigYkaOSlqFlvciA-154">
          <mxGeometry relative="1" as="geometry" />
        </mxCell>
        <mxCell id="qdY2nigYkaOSlqFlvciA-157" style="edgeStyle=none;shape=connector;rounded=0;orthogonalLoop=1;jettySize=auto;html=1;exitX=0.75;exitY=1;exitDx=0;exitDy=0;entryX=0.5;entryY=0;entryDx=0;entryDy=0;labelBackgroundColor=default;strokeColor=default;align=center;verticalAlign=middle;fontFamily=Helvetica;fontSize=11;fontColor=default;endArrow=classic;" edge="1" parent="1" source="qdY2nigYkaOSlqFlvciA-103" target="qdY2nigYkaOSlqFlvciA-155">
          <mxGeometry relative="1" as="geometry" />
        </mxCell>
        <mxCell id="qdY2nigYkaOSlqFlvciA-103" value="Deffered Shaders" style="rounded=0;whiteSpace=wrap;html=1;" vertex="1" parent="1">
          <mxGeometry x="1000" y="1700" width="120" height="60" as="geometry" />
        </mxCell>
        <mxCell id="qdY2nigYkaOSlqFlvciA-154" value="DefferedShader1" style="rounded=0;whiteSpace=wrap;html=1;" vertex="1" parent="1">
          <mxGeometry x="880" y="1830" width="120" height="60" as="geometry" />
        </mxCell>
        <mxCell id="qdY2nigYkaOSlqFlvciA-155" value="DefferedShaderN" style="rounded=0;whiteSpace=wrap;html=1;" vertex="1" parent="1">
          <mxGeometry x="1060" y="1840" width="120" height="60" as="geometry" />
        </mxCell>
        <mxCell id="qdY2nigYkaOSlqFlvciA-175" style="edgeStyle=none;shape=connector;rounded=0;orthogonalLoop=1;jettySize=auto;html=1;exitX=0.25;exitY=1;exitDx=0;exitDy=0;entryX=0.5;entryY=0;entryDx=0;entryDy=0;labelBackgroundColor=default;strokeColor=default;align=center;verticalAlign=middle;fontFamily=Helvetica;fontSize=11;fontColor=default;endArrow=classic;" edge="1" parent="1" source="qdY2nigYkaOSlqFlvciA-170" target="qdY2nigYkaOSlqFlvciA-172">
          <mxGeometry relative="1" as="geometry" />
        </mxCell>
        <mxCell id="qdY2nigYkaOSlqFlvciA-179" style="edgeStyle=none;shape=connector;rounded=0;orthogonalLoop=1;jettySize=auto;html=1;exitX=0.75;exitY=1;exitDx=0;exitDy=0;entryX=0.5;entryY=0;entryDx=0;entryDy=0;labelBackgroundColor=default;strokeColor=default;align=center;verticalAlign=middle;fontFamily=Helvetica;fontSize=11;fontColor=default;endArrow=classic;" edge="1" parent="1" source="qdY2nigYkaOSlqFlvciA-170" target="qdY2nigYkaOSlqFlvciA-178">
          <mxGeometry relative="1" as="geometry" />
        </mxCell>
        <mxCell id="qdY2nigYkaOSlqFlvciA-184" style="edgeStyle=none;shape=connector;rounded=0;orthogonalLoop=1;jettySize=auto;html=1;exitX=0.5;exitY=1;exitDx=0;exitDy=0;entryX=0.5;entryY=0;entryDx=0;entryDy=0;labelBackgroundColor=default;strokeColor=default;align=center;verticalAlign=middle;fontFamily=Helvetica;fontSize=11;fontColor=default;endArrow=classic;" edge="1" parent="1" source="qdY2nigYkaOSlqFlvciA-170" target="qdY2nigYkaOSlqFlvciA-183">
          <mxGeometry relative="1" as="geometry" />
        </mxCell>
        <mxCell id="qdY2nigYkaOSlqFlvciA-170" value="ShadowsPass" style="rounded=0;whiteSpace=wrap;html=1;" vertex="1" parent="1">
          <mxGeometry x="1800" y="1594" width="120" height="60" as="geometry" />
        </mxCell>
        <mxCell id="qdY2nigYkaOSlqFlvciA-176" style="edgeStyle=none;shape=connector;rounded=0;orthogonalLoop=1;jettySize=auto;html=1;exitX=0.25;exitY=1;exitDx=0;exitDy=0;entryX=0.5;entryY=0;entryDx=0;entryDy=0;labelBackgroundColor=default;strokeColor=default;align=center;verticalAlign=middle;fontFamily=Helvetica;fontSize=11;fontColor=default;endArrow=classic;" edge="1" parent="1" source="qdY2nigYkaOSlqFlvciA-172" target="qdY2nigYkaOSlqFlvciA-173">
          <mxGeometry relative="1" as="geometry" />
        </mxCell>
        <mxCell id="qdY2nigYkaOSlqFlvciA-177" style="edgeStyle=none;shape=connector;rounded=0;orthogonalLoop=1;jettySize=auto;html=1;exitX=0.75;exitY=1;exitDx=0;exitDy=0;entryX=0.5;entryY=0;entryDx=0;entryDy=0;labelBackgroundColor=default;strokeColor=default;align=center;verticalAlign=middle;fontFamily=Helvetica;fontSize=11;fontColor=default;endArrow=classic;" edge="1" parent="1" source="qdY2nigYkaOSlqFlvciA-172" target="qdY2nigYkaOSlqFlvciA-174">
          <mxGeometry relative="1" as="geometry" />
        </mxCell>
        <mxCell id="qdY2nigYkaOSlqFlvciA-172" value="Shadow shaders" style="rounded=0;whiteSpace=wrap;html=1;" vertex="1" parent="1">
          <mxGeometry x="1740" y="1700" width="120" height="60" as="geometry" />
        </mxCell>
        <mxCell id="qdY2nigYkaOSlqFlvciA-173" value="ShadowShader1" style="rounded=0;whiteSpace=wrap;html=1;" vertex="1" parent="1">
          <mxGeometry x="1660" y="1800" width="120" height="60" as="geometry" />
        </mxCell>
        <mxCell id="qdY2nigYkaOSlqFlvciA-174" value="SjadowShaderN" style="rounded=0;whiteSpace=wrap;html=1;" vertex="1" parent="1">
          <mxGeometry x="1830" y="1810" width="120" height="60" as="geometry" />
        </mxCell>
        <mxCell id="qdY2nigYkaOSlqFlvciA-182" style="edgeStyle=none;shape=connector;rounded=0;orthogonalLoop=1;jettySize=auto;html=1;exitX=0.5;exitY=1;exitDx=0;exitDy=0;entryX=0.5;entryY=0;entryDx=0;entryDy=0;labelBackgroundColor=default;strokeColor=default;align=center;verticalAlign=middle;fontFamily=Helvetica;fontSize=11;fontColor=default;endArrow=classic;" edge="1" parent="1" source="qdY2nigYkaOSlqFlvciA-178" target="qdY2nigYkaOSlqFlvciA-180">
          <mxGeometry relative="1" as="geometry" />
        </mxCell>
        <mxCell id="qdY2nigYkaOSlqFlvciA-178" value="Subpasses" style="rounded=0;whiteSpace=wrap;html=1;" vertex="1" parent="1">
          <mxGeometry x="2150" y="1730" width="120" height="60" as="geometry" />
        </mxCell>
        <mxCell id="qdY2nigYkaOSlqFlvciA-180" value="Shadow pass" style="rounded=0;whiteSpace=wrap;html=1;" vertex="1" parent="1">
          <mxGeometry x="2150" y="1850" width="120" height="60" as="geometry" />
        </mxCell>
        <mxCell id="qdY2nigYkaOSlqFlvciA-187" style="edgeStyle=none;shape=connector;rounded=0;orthogonalLoop=1;jettySize=auto;html=1;exitX=0.25;exitY=1;exitDx=0;exitDy=0;entryX=0.5;entryY=0;entryDx=0;entryDy=0;labelBackgroundColor=default;strokeColor=default;align=center;verticalAlign=middle;fontFamily=Helvetica;fontSize=11;fontColor=default;endArrow=classic;" edge="1" parent="1" source="qdY2nigYkaOSlqFlvciA-183" target="qdY2nigYkaOSlqFlvciA-185">
          <mxGeometry relative="1" as="geometry" />
        </mxCell>
        <mxCell id="qdY2nigYkaOSlqFlvciA-188" style="edgeStyle=none;shape=connector;rounded=0;orthogonalLoop=1;jettySize=auto;html=1;exitX=0.75;exitY=1;exitDx=0;exitDy=0;entryX=0.5;entryY=0;entryDx=0;entryDy=0;labelBackgroundColor=default;strokeColor=default;align=center;verticalAlign=middle;fontFamily=Helvetica;fontSize=11;fontColor=default;endArrow=classic;" edge="1" parent="1" source="qdY2nigYkaOSlqFlvciA-183" target="qdY2nigYkaOSlqFlvciA-186">
          <mxGeometry relative="1" as="geometry" />
        </mxCell>
        <mxCell id="qdY2nigYkaOSlqFlvciA-183" value="Shadow maps" style="rounded=0;whiteSpace=wrap;html=1;" vertex="1" parent="1">
          <mxGeometry x="1950" y="1730" width="120" height="60" as="geometry" />
        </mxCell>
        <mxCell id="qdY2nigYkaOSlqFlvciA-185" value="Shadow map1" style="rounded=0;whiteSpace=wrap;html=1;" vertex="1" parent="1">
          <mxGeometry x="1910" y="1930" width="120" height="60" as="geometry" />
        </mxCell>
        <mxCell id="qdY2nigYkaOSlqFlvciA-186" value="Shadow mapN" style="rounded=0;whiteSpace=wrap;html=1;" vertex="1" parent="1">
          <mxGeometry x="2050" y="1930" width="120" height="60" as="geometry" />
        </mxCell>
        <mxCell id="qdY2nigYkaOSlqFlvciA-189" value="&lt;div&gt;RenderPasses&lt;/div&gt;&lt;div&gt;OutputImage&lt;br&gt;&lt;/div&gt;" style="rounded=0;whiteSpace=wrap;html=1;" vertex="1" parent="1">
          <mxGeometry x="570" y="1380" width="120" height="60" as="geometry" />
        </mxCell>
      </root>
    </mxGraphModel>
  </diagram>
</mxfile>
